#!OML:ASF C:\ViconDB\ViconDB\414\Spring2016\041811\Spring2016.ASF
:FULLY-SPECIFIED
:DEGREES
261
root 11.6142 17.6005 2.58316 -178.27 -13.551 -178.375
lowerback -1.40237 -2.44878 4.90701
upperback 0.433877 -3.5239 2.898
thorax 1.12494 -1.79096 0.151976
lowerneck -13.3825 0.797212 -6.89898
upperneck 26.0815 -0.776233 8.29665
head 10.579 -0.575023 3.98069
rclavicle 1.53561e-014 2.38542e-015
rhumerus -82.6944 29.2448 -111.594
rradius 92.3062
rwrist 35.5253
rhand -43.1881 0.576737
rfingers 7.12502
rthumb -16.0395 -28.7794
lclavicle 1.53561e-014 2.38542e-015
lhumerus -84.154 -41.8702 118.894
lradius 73.1643
lwrist -37.6045
lhand -51.1445 0.13017
lfingers 7.12502
lthumb -23.6872 28.6907
rfemur 176.869 39.3014 -154.711
rtibia 38.1573
rfoot -38.9382 -60.1961
rtoes 3.65764e-014
lfemur -7.91273 1.38648 -8.7828
ltibia 62.3324
lfoot 4.27414 -3.30654
ltoes 8.26944e-014
262
root 11.6581 17.6437 2.43446 -178.443 -13.4954 -177.874
lowerback -1.22169 -2.34412 5.02718
upperback 0.526897 -3.38368 2.93283
thorax 1.11955 -1.72145 0.129748
lowerneck -13.3758 0.67385 -7.02494
upperneck 25.9251 -1.09031 8.92311
head 10.5496 -0.65891 4.18838
rclavicle 1.17283e-014 2.38542e-015
rhumerus -83.1117 29.793 -112.041
rradius 92.1573
rwrist 35.1063
rhand -43.4602 0.306892
rfingers 7.12502
rthumb -16.3015 -29.0279
lclavicle 1.17283e-014 2.38542e-015
lhumerus -83.9132 -42.1622 119.004
lradius 72.9706
lwrist -37.6355
lhand -51.2263 0.317368
lfingers 7.12502
lthumb -23.7657 28.8677
rfemur 176.725 41.2976 -153.567
rtibia 37.85
rfoot -41.8896 -59.8505
rtoes -5.40694e-014
lfemur -10.426 1.81778 -8.20666
ltibia 64.8198
lfoot 2.96498 -2.03802
ltoes -1.55847e-013
263
root 11.702 17.675 2.28648 -178.619 -13.4259 -177.373
lowerback -1.06724 -2.22205 5.20443
upperback 0.645893 -3.22004 2.9019
thorax 1.14992 -1.63702 0.00656376
lowerneck -13.3429 0.518826 -7.06345
upperneck 25.7163 -1.46842 9.54122
head 10.5055 -0.76645 4.36777
rclavicle 2.50966e-014 -7.31528e-014
rhumerus -83.399 30.1778 -112.583
rradius 91.9151
rwrist 34.6322
rhand -43.6858 -0.0433736
rfingers 7.12502
rthumb -16.5188 -29.3602
lclavicle 2.50966e-014 -7.31528e-014
lhumerus -83.8043 -42.4969 119.093
lradius 72.9163
lwrist -37.1031
lhand -51.1369 -0.0655408
lfingers 7.12502
lthumb -23.6799 28.4959
rfemur 176.554 43.3091 -152.456
rtibia 37.5937
rfoot -44.7872 -59.4704
rtoes 1.43125e-014
lfemur -12.8222 2.15801 -7.73397
ltibia 66.9049
lfoot 1.82976 -0.725977
ltoes 2.54444e-014
264
root 11.7535 17.7053 2.14978 -178.81 -13.4074 -176.585
lowerback -0.805353 -2.10882 5.45373
upperback 0.719148 -3.07643 3.08249
thorax 1.08213 -1.57217 0.0654832
lowerneck -13.3382 0.319632 -7.15152
upperneck 25.547 -1.84669 9.98406
head 10.4844 -0.898663 4.49332
rclavicle 8.3589e-014 -5.40694e-014
rhumerus -83.7445 30.6648 -113.035
rradius 91.6781
rwrist 34.0148
rhand -43.7312 -0.250688
rfingers 7.12502
rthumb -16.5624 -29.5639
lclavicle 8.3589e-014 -5.40694e-014
lhumerus -83.4264 -42.7215 119.111
lradius 72.6325
lwrist -37.5041
lhand -51.5031 0.597013
lfingers 7.12502
lthumb -24.0311 29.1126
rfemur 176.457 44.9311 -151.078
rtibia 37.3687
rfoot -47.2968 -58.835
rtoes 2.70347e-014
lfemur -15.3675 2.54304 -6.933
ltibia 68.6713
lfoot 0.825836 0.219587
ltoes -5.82042e-013
